<?xml version="1.0" encoding="UTF-8" standalone="no"?>
<!-- Created with Inkscape (http://www.inkscape.org/) -->

<svg
   xmlns:dc="http://purl.org/dc/elements/1.1/"
   xmlns:cc="http://creativecommons.org/ns#"
   xmlns:rdf="http://www.w3.org/1999/02/22-rdf-syntax-ns#"
   xmlns:svg="http://www.w3.org/2000/svg"
   xmlns="http://www.w3.org/2000/svg"
   xmlns:sodipodi="http://sodipodi.sourceforge.net/DTD/sodipodi-0.dtd"
   xmlns:inkscape="http://www.inkscape.org/namespaces/inkscape"
   width="744.09448819"
   height="1052.3622047"
   id="svg2"
   version="1.1"
   inkscape:version="0.47 r22583"
   sodipodi:docname="quiz-lag.svg">
  <defs
     id="defs4">
    <inkscape:perspective
       sodipodi:type="inkscape:persp3d"
       inkscape:vp_x="0 : 526.18109 : 1"
       inkscape:vp_y="0 : 1000 : 0"
       inkscape:vp_z="744.09448 : 526.18109 : 1"
       inkscape:persp3d-origin="372.04724 : 350.78739 : 1"
       id="perspective10" />
    <inkscape:perspective
       id="perspective3646"
       inkscape:persp3d-origin="0.5 : 0.33333333 : 1"
       inkscape:vp_z="1 : 0.5 : 1"
       inkscape:vp_y="0 : 1000 : 0"
       inkscape:vp_x="0 : 0.5 : 1"
       sodipodi:type="inkscape:persp3d" />
  </defs>
  <sodipodi:namedview
     id="base"
     pagecolor="#ffffff"
     bordercolor="#666666"
     borderopacity="1.0"
     inkscape:pageopacity="0.0"
     inkscape:pageshadow="2"
     inkscape:zoom="0.63218555"
     inkscape:cx="38.573149"
     inkscape:cy="612.4158"
     inkscape:document-units="px"
     inkscape:current-layer="layer1"
     showgrid="false"
     inkscape:window-width="1280"
     inkscape:window-height="725"
     inkscape:window-x="0"
     inkscape:window-y="24"
     inkscape:window-maximized="1" />
  <metadata
     id="metadata7">
    <rdf:RDF>
      <cc:Work
         rdf:about="">
        <dc:format>image/svg+xml</dc:format>
        <dc:type
           rdf:resource="http://purl.org/dc/dcmitype/StillImage" />
        <dc:title></dc:title>
      </cc:Work>
    </rdf:RDF>
  </metadata>
  <g
     inkscape:label="Layer 1"
     inkscape:groupmode="layer"
     id="layer1">
    <path
       sodipodi:type="arc"
       style="opacity:0.41004183999999999;fill:#000000;fill-opacity:1;stroke:none"
       id="path2816"
       sodipodi:cx="102.68834"
       sodipodi:cy="229.48628"
       sodipodi:rx="29.66552"
       sodipodi:ry="29.66552"
       d="m 132.35386,229.48628 a 29.66552,29.66552 0 1 1 -59.33104,0 29.66552,29.66552 0 1 1 59.33104,0 z" />
    <path
       style="fill:none;stroke:#000000;stroke-width:3;stroke-linecap:butt;stroke-linejoin:miter;stroke-opacity:1;stroke-miterlimit:4;stroke-dasharray:none"
       d="m 107.70866,257.32623 15.51735,100.40638"
       id="path2818" />
    <path
       style="fill:none;stroke:#000000;stroke-width:3;stroke-linecap:butt;stroke-linejoin:miter;stroke-opacity:1;stroke-miterlimit:4;stroke-dasharray:none"
       d="m 85.801813,388.76731 c 37.424197,-33.77305 36.511407,-33.77305 36.511407,-33.77305 l 52.02876,28.29634"
       id="path3592" />
    <path
       style="fill:none;stroke:#000000;stroke-width:3;stroke-linecap:butt;stroke-linejoin:miter;stroke-opacity:1;stroke-miterlimit:4;stroke-dasharray:none"
       d="m 81.237887,301.13993 28.296343,-24.64521 40.16255,-14.60456"
       id="path3594" />
    <g
       id="g3669"
       transform="matrix(0.75142778,0,0,0.78911379,257.05617,-107.07872)">
      <path
         d="m 132.35386,229.48628 c 0,16.38382 -13.28171,29.66552 -29.66552,29.66552 -16.383815,0 -29.66552,-13.2817 -29.66552,-29.66552 0,-16.38381 13.281705,-29.66552 29.66552,-29.66552 16.38381,0 29.66552,13.28171 29.66552,29.66552 z"
         sodipodi:ry="29.66552"
         sodipodi:rx="29.66552"
         sodipodi:cy="229.48628"
         sodipodi:cx="102.68834"
         id="path2816-1"
         style="opacity:0.41004184;fill:#000000;fill-opacity:1;stroke:none"
         sodipodi:type="arc"
         transform="translate(120.19405,166.74609)" />
      <path
         id="path2818-3"
         d="M 227.90271,424.07232 243.42006,524.4787"
         style="fill:none;stroke:#000000;stroke-width:3;stroke-linecap:butt;stroke-linejoin:miter;stroke-miterlimit:4;stroke-opacity:1;stroke-dasharray:none" />
      <path
         id="path3592-0"
         d="m 205.99586,555.5134 c 37.4242,-33.77305 36.51141,-33.77305 36.51141,-33.77305 l 52.02876,28.29634"
         style="fill:none;stroke:#000000;stroke-width:3;stroke-linecap:butt;stroke-linejoin:miter;stroke-miterlimit:4;stroke-opacity:1;stroke-dasharray:none" />
      <path
         id="path3594-3"
         d="m 201.43193,467.88602 28.29635,-24.64521 40.16255,-14.60456"
         style="fill:none;stroke:#000000;stroke-width:3;stroke-linecap:butt;stroke-linejoin:miter;stroke-miterlimit:4;stroke-opacity:1;stroke-dasharray:none" />
    </g>
    <g
       transform="matrix(0.75142778,0,0,0.78911379,303.60822,-90.648586)"
       id="g3675">
      <path
         transform="translate(120.19405,166.74609)"
         sodipodi:type="arc"
         style="opacity:0.41004184;fill:#000000;fill-opacity:1;stroke:none"
         id="path3677"
         sodipodi:cx="102.68834"
         sodipodi:cy="229.48628"
         sodipodi:rx="29.66552"
         sodipodi:ry="29.66552"
         d="m 132.35386,229.48628 c 0,16.38382 -13.28171,29.66552 -29.66552,29.66552 -16.383815,0 -29.66552,-13.2817 -29.66552,-29.66552 0,-16.38381 13.281705,-29.66552 29.66552,-29.66552 16.38381,0 29.66552,13.28171 29.66552,29.66552 z" />
      <path
         style="fill:none;stroke:#000000;stroke-width:3;stroke-linecap:butt;stroke-linejoin:miter;stroke-miterlimit:4;stroke-opacity:1;stroke-dasharray:none"
         d="M 227.90271,424.07232 243.42006,524.4787"
         id="path3679" />
      <path
         style="fill:none;stroke:#000000;stroke-width:3;stroke-linecap:butt;stroke-linejoin:miter;stroke-miterlimit:4;stroke-opacity:1;stroke-dasharray:none"
         d="m 205.99586,555.5134 c 37.4242,-33.77305 36.51141,-33.77305 36.51141,-33.77305 l 52.02876,28.29634"
         id="path3681" />
      <path
         style="fill:none;stroke:#000000;stroke-width:3;stroke-linecap:butt;stroke-linejoin:miter;stroke-miterlimit:4;stroke-opacity:1;stroke-dasharray:none"
         d="m 201.43193,467.88602 28.29635,-24.64521 40.16255,-14.60456"
         id="path3683" />
    </g>
    <g
       id="g3685"
       transform="matrix(0.75142778,0,0,0.78911379,270.74795,-36.794257)">
      <path
         d="m 132.35386,229.48628 c 0,16.38382 -13.28171,29.66552 -29.66552,29.66552 -16.383815,0 -29.66552,-13.2817 -29.66552,-29.66552 0,-16.38381 13.281705,-29.66552 29.66552,-29.66552 16.38381,0 29.66552,13.28171 29.66552,29.66552 z"
         sodipodi:ry="29.66552"
         sodipodi:rx="29.66552"
         sodipodi:cy="229.48628"
         sodipodi:cx="102.68834"
         id="path3687"
         style="opacity:0.41004184;fill:#000000;fill-opacity:1;stroke:none"
         sodipodi:type="arc"
         transform="translate(120.19405,166.74609)" />
      <path
         id="path3689"
         d="M 227.90271,424.07232 243.42006,524.4787"
         style="fill:none;stroke:#000000;stroke-width:3;stroke-linecap:butt;stroke-linejoin:miter;stroke-miterlimit:4;stroke-opacity:1;stroke-dasharray:none" />
      <path
         id="path3691"
         d="m 205.99586,555.5134 c 37.4242,-33.77305 36.51141,-33.77305 36.51141,-33.77305 l 52.02876,28.29634"
         style="fill:none;stroke:#000000;stroke-width:3;stroke-linecap:butt;stroke-linejoin:miter;stroke-miterlimit:4;stroke-opacity:1;stroke-dasharray:none" />
      <path
         id="path3693"
         d="m 201.43193,467.88602 28.29635,-24.64521 40.16255,-14.60456"
         style="fill:none;stroke:#000000;stroke-width:3;stroke-linecap:butt;stroke-linejoin:miter;stroke-miterlimit:4;stroke-opacity:1;stroke-dasharray:none" />
    </g>
    <g
       id="g3709">
      <path
         id="path3695"
         d="m 167.95249,278.32029 c 0,0 21.90684,-87.62738 85.80181,-89.45295 63.89497,-1.82557 129.6155,41.07534 129.6155,41.07534"
         style="fill:none;stroke:#000000;stroke-width:2;stroke-linecap:butt;stroke-linejoin:miter;stroke-opacity:1;stroke-miterlimit:4;stroke-dasharray:none" />
      <g
         transform="matrix(0.11577177,0.99327584,-0.99327584,0.11577177,851.91806,51.422334)"
         id="g3701">
        <g
           id="g3705">
          <path
             sodipodi:nodetypes="cccc"
             id="path3697"
             d="m 115.01094,498.30154 18.25571,-28.29634 c 0,0 -11.08525,22.21843 -6.16779,36.01007 -6.60321,-1.72769 -12.08792,-7.71373 -12.08792,-7.71373 z"
             style="fill:#000000;fill-opacity:1;stroke:#000000;stroke-width:1px;stroke-linecap:butt;stroke-linejoin:miter;stroke-opacity:1" />
          <path
             style="fill:#000000;fill-opacity:1;stroke:#000000;stroke-width:1px;stroke-linecap:butt;stroke-linejoin:miter;stroke-opacity:1"
             d="m 114.12143,498.0972 18.83637,-27.91316 c 0,0 -11.94054,14.42711 -29.61553,16.6394 5.52663,7.94951 10.77916,11.27376 10.77916,11.27376 z"
             id="path3699"
             sodipodi:nodetypes="cccc" />
        </g>
      </g>
    </g>
    <g
       id="g3716"
       transform="matrix(-0.98388736,0.17878946,-0.17878946,-0.98388736,611.46494,578.68598)">
      <path
         style="fill:none;stroke:#000000;stroke-width:2;stroke-linecap:butt;stroke-linejoin:miter;stroke-miterlimit:4;stroke-opacity:1;stroke-dasharray:none"
         d="m 142.33992,233.47307 c 0,0 47.51941,-42.78016 111.41438,-44.60573 63.89497,-1.82557 129.6155,41.07534 129.6155,41.07534"
         id="path3718"
         sodipodi:nodetypes="csc" />
      <g
         id="g3720"
         transform="matrix(0.11577177,0.99327584,-0.99327584,0.11577177,851.91806,51.422334)">
        <g
           id="g3722">
          <path
             style="fill:#000000;fill-opacity:1;stroke:#000000;stroke-width:1px;stroke-linecap:butt;stroke-linejoin:miter;stroke-opacity:1"
             d="m 115.01094,498.30154 18.25571,-28.29634 c 0,0 -11.08525,22.21843 -6.16779,36.01007 -6.60321,-1.72769 -12.08792,-7.71373 -12.08792,-7.71373 z"
             id="path3724"
             sodipodi:nodetypes="cccc" />
          <path
             sodipodi:nodetypes="cccc"
             id="path3726"
             d="m 114.12143,498.0972 18.83637,-27.91316 c 0,0 -11.94054,14.42711 -29.61553,16.6394 5.52663,7.94951 10.77916,11.27376 10.77916,11.27376 z"
             style="fill:#000000;fill-opacity:1;stroke:#000000;stroke-width:1px;stroke-linecap:butt;stroke-linejoin:miter;stroke-opacity:1" />
        </g>
      </g>
    </g>
  </g>
</svg>
